<svg height="512pt" viewBox="-21 0 512 512" width="512pt" xmlns="http://www.w3.org/2000/svg"><path d="m461.5 56.375c-4.144531 0-7.5 3.355469-7.5 7.5v433.125h-381v-17.25c0-4.144531-3.355469-7.5-7.5-7.5s-7.5 3.355469-7.5 7.5v24.75c0 4.144531 3.355469 7.5 7.5 7.5h396c4.144531 0 7.5-3.355469 7.5-7.5v-440.625c0-4.144531-3.355469-7.5-7.5-7.5zm0 0"/><path d="m368.183594 292.195312h-220c-4.144532 0-7.5 3.359376-7.5 7.5 0 4.144532 3.355468 7.5 7.5 7.5h220c4.140625 0 7.5-3.355468 7.5-7.5 0-4.140624-3.359375-7.5-7.5-7.5zm0 0"/><path d="m148.183594 456.246094h220c4.140625 0 7.5-3.355469 7.5-7.5 0-4.144532-3.359375-7.5-7.5-7.5h-220c-4.144532 0-7.5 3.355468-7.5 7.5 0 4.144531 3.355468 7.5 7.5 7.5zm0 0"/><path d="m368.183594 325.53125h-220c-4.144532 0-7.5 3.355469-7.5 7.5s3.355468 7.5 7.5 7.5h220c4.140625 0 7.5-3.355469 7.5-7.5s-3.359375-7.5-7.5-7.5zm0 0"/><path d="m368.183594 358.863281h-220c-4.144532 0-7.5 3.359375-7.5 7.5 0 4.144531 3.355468 7.5 7.5 7.5h220c4.140625 0 7.5-3.355469 7.5-7.5 0-4.140625-3.359375-7.5-7.5-7.5zm0 0"/><path d="m148.183594 407.195312h56.078125c4.144531 0 7.5-3.355468 7.5-7.5 0-4.140624-3.355469-7.5-7.5-7.5h-56.078125c-4.144532 0-7.5 3.359376-7.5 7.5 0 4.144532 3.355468 7.5 7.5 7.5zm0 0"/><path d="m116 222.789062v5.246094c0 14.042969 11.421875 25.464844 25.464844 25.464844h244.070312c14.042969 0 25.464844-11.421875 25.464844-25.464844v-5.246094c0-6.773437-5.515625-12.289062-12.289062-12.289062h-8.910157c.117188-.820312.199219-1.648438.199219-2.5v-123c0-9.648438-7.851562-17.5-17.5-17.5h-170c-4.144531 0-7.5 3.355469-7.5 7.5s3.355469 7.5 7.5 7.5h170c1.378906 0 2.5 1.121094 2.5 2.5v123c0 1.378906-1.121094 2.5-2.5 2.5h-218c-1.378906 0-2.5-1.121094-2.5-2.5v-123c0-1.378906 1.121094-2.5 2.5-2.5h16c4.144531 0 7.5-3.355469 7.5-7.5s-3.355469-7.5-7.5-7.5h-16c-9.648438 0-17.5 7.851562-17.5 17.5v123c0 .851562.082031 1.679688.199219 2.5h-8.910157c-6.773437 0-12.289062 5.515625-12.289062 12.289062zm15 2.710938h265v2.535156c0 5.773438-4.691406 10.464844-10.464844 10.464844h-244.070312c-5.773438 0-10.464844-4.691406-10.464844-10.464844zm0 0"/><path d="m461.5 0h-396c-5.113281 0-9.035156 2.582031-12.1875 4.65625-1.238281.816406-2.785156 1.832031-3.566406 2.042969-.898438.242187-2.746094.136719-4.375.046875-3.714844-.207032-8.332032-.464844-12.632813 2.023437-4.347656 2.515625-6.4375 6.675781-8.117187 10.015625-.71875 1.4375-1.535156 3.0625-2.15625 3.679688-.617188.621094-2.242188 1.4375-3.675782 2.15625-3.34375 1.679687-7.503906 3.769531-10.019531 8.117187-2.488281 4.300781-2.230469 8.917969-2.023437 12.632813.09375 1.628906.195312 3.476562-.046875 4.375-.210938.78125-1.226563 2.328125-2.042969 3.566406-2.074219 3.152344-4.65625 7.074219-4.65625 12.1875s2.582031 9.035156 4.65625 12.1875c.816406 1.238281 1.832031 2.785156 2.042969 3.566406.242187.898438.140625 2.746094.046875 4.375-.207032 3.714844-.464844 8.332032 2.023437 12.632813 2.515625 4.347656 6.675781 6.4375 10.015625 8.117187 1.4375.71875 3.0625 1.535156 3.679688 2.15625.621094.617188 1.4375 2.242188 2.15625 3.675782 1.28125 2.546874 2.804687 5.5625 5.378906 7.96875v54.820312c0 3.296875 1.785156 6.382812 4.660156 8.054688 2.929688 1.703124 6.578125 1.71875 9.523438.039062l13.816406-7.878906v272.660156c0 4.144531 3.355469 7.5 7.5 7.5 4.140625 0 7.5-3.355469 7.5-7.5v-272.660156l13.816406 7.882812c1.460938.828125 3.089844 1.246094 4.722656 1.246094 1.660157 0 3.324219-.433594 4.800782-1.289062 2.875-1.671876 4.660156-4.757813 4.660156-8.054688v-54.820312c2.570312-2.40625 4.097656-5.421876 5.378906-7.96875.71875-1.433594 1.535156-3.058594 2.15625-3.675782.617188-.621094 2.242188-1.4375 3.675782-2.15625 3.34375-1.679687 7.5-3.769531 10.019531-8.117187 2.484375-4.300781 2.230469-8.921875 2.023437-12.632813-.09375-1.628906-.195312-3.476562.046875-4.375.207031-.785156 1.226563-2.328125 2.042969-3.570312 2.074219-3.148438 4.65625-7.070313 4.65625-12.183594s-2.582031-9.035156-4.65625-12.1875c-.816406-1.238281-1.835938-2.785156-2.042969-3.566406-.242187-.902344-.140625-2.75-.046875-4.378906.207032-3.710938.460938-8.328126-2.027344-12.628907-2.511718-4.347656-6.671874-6.4375-10.015624-8.117187-1.433594-.722656-3.058594-1.535156-3.675782-2.15625-.621094-.621094-1.4375-2.246094-2.15625-3.679688-.601562-1.195312-1.261718-2.496094-2.050781-3.785156h349.671875v16.875c0 4.140625 3.355469 7.5 7.5 7.5s7.5-3.359375 7.5-7.5v-24.375c0-4.144531-3.355469-7.5-7.5-7.5zm-391.308594 156.347656c-1.171875-.660156-2.457031-1.039062-3.769531-1.164062-.300781-.039063-.609375-.0625-.921875-.0625-.324219 0-.636719.027344-.949219.066406-1.308593.128906-2.597656.511719-3.777343 1.175781l-15.773438 9v-41.089843c.125-.007813.25-.015626.371094-.019532 1.628906-.09375 3.476562-.195312 4.375.046875.78125.207031 2.328125 1.226563 3.566406 2.042969 3.152344 2.074219 7.074219 4.65625 12.1875 4.65625s9.035156-2.582031 12.1875-4.65625c1.238281-.816406 2.785156-1.832031 3.566406-2.042969.898438-.242187 2.746094-.136719 4.375-.046875.125.007813.25.011719.371094.019532v41.089843zm39.042969-116.101562c.242187.71875.121094 2.859375.042969 4.289062-.15625 2.75-.328125 5.867188.53125 9.085938.835937 3.128906 2.519531 5.6875 4.003906 7.941406.789062 1.199219 2.109375 3.199219 2.1875 3.9375-.078125.738281-1.398438 2.738281-2.1875 3.9375-1.484375 2.257812-3.167969 4.8125-4.003906 7.941406-.859375 3.21875-.6875 6.335938-.53125 9.085938.078125 1.429687.199218 3.570312-.042969 4.289062-.5.585938-2.53125 1.605469-3.757813 2.222656-2.445312 1.226563-5.21875 2.621094-7.546874 4.953126-2.332032 2.328124-3.726563 5.101562-4.957032 7.550781-.613281 1.222656-1.636718 3.253906-2.21875 3.753906-.71875.242187-2.863281.121094-4.289062.042969-2.75-.152344-5.867188-.328125-9.085938.53125-3.128906.835937-5.6875 2.519531-7.941406 4.007812-1.207031.792969-3.230469 2.125-3.921875 2.183594-.722656-.058594-2.746094-1.390625-3.953125-2.183594-2.257812-1.488281-4.8125-3.171875-7.941406-4.007812-1.925782-.515625-3.816406-.65625-5.613282-.65625-1.203124 0-2.367187.0625-3.472656.125-1.429687.078125-3.570312.199218-4.289062-.042969-.585938-.5-1.605469-2.53125-2.222656-3.757813-1.226563-2.445312-2.621094-5.21875-4.953126-7.546874-2.328124-2.332032-5.101562-3.726563-7.550781-4.953126-1.222656-.617187-3.253906-1.636718-3.753906-2.222656-.242187-.71875-.121094-2.859375-.042969-4.289062.152344-2.75.328125-5.867188-.53125-9.085938-.835937-3.128906-2.519531-5.6875-4.007812-7.941406-.792969-1.207031-2.125-3.230469-2.183594-3.921875.058594-.722656 1.390625-2.746094 2.183594-3.953125 1.488281-2.253906 3.171875-4.8125 4.007812-7.941406.859375-3.214844.6875-6.332032.53125-9.085938-.078125-1.429687-.199218-3.570312.042969-4.289062.5-.585938 2.53125-1.605469 3.757813-2.222656 2.445312-1.226563 5.21875-2.621094 7.546874-4.949219 2.332032-2.332031 3.726563-5.105469 4.953126-7.550781.617187-1.226563 1.636718-3.257813 2.222656-3.757813.71875-.242187 2.859375-.121094 4.289062-.042969 2.75.15625 5.867188.328125 9.085938-.53125 3.128906-.835937 5.6875-2.519531 7.941406-4.003906 1.207031-.796875 3.230469-2.128906 3.921875-2.1875.722656.058594 2.746094 1.390625 3.953125 2.1875 2.253906 1.484375 4.8125 3.167969 7.941406 4.003906 3.21875.859375 6.335938.6875 9.085938.53125 1.429687-.078125 3.570312-.199218 4.289062.042969.585938.5 1.605469 2.53125 2.222656 3.757813 1.226563 2.445312 2.621094 5.21875 4.949219 7.546874 2.332031 2.332032 5.105469 3.726563 7.550781 4.957032 1.226563.613281 3.257813 1.632812 3.757813 2.21875zm0 0"/></svg>